<svg width="59" height="44" viewBox="0 0 59 44" fill="none" xmlns="http://www.w3.org/2000/svg">
<mask id="mask0_0_159" style="mask-type:alpha" maskUnits="userSpaceOnUse" x="0" y="0" width="59" height="44">
<path fill-rule="evenodd" clip-rule="evenodd" d="M0.886719 0H58.9999V44H0.886719V0Z" fill="white"/>
</mask>
<g mask="url(#mask0_0_159)">
<path fill-rule="evenodd" clip-rule="evenodd" d="M48.9281 23.8232V19.2019C48.9281 18.8042 49.1642 18.7157 49.4065 18.7157C49.6485 18.7157 49.8845 18.8042 49.8845 19.2019V23.8232C49.8845 24.2209 49.6485 24.3094 49.4065 24.3094C49.1642 24.3094 48.9281 24.2209 48.9281 23.8232ZM41.5778 18.8421H41.8534C42.1506 18.8421 42.2938 18.9193 42.2938 19.4276V23.6411C42.2938 24.1493 42.1506 24.2266 41.8534 24.2266H41.5778V18.8421ZM32.9877 22.0919L33.2598 19.0371H33.3368L33.5645 22.0919H32.9877ZM29.3587 18.8421H29.6342C29.9314 18.8421 30.0746 18.9193 30.0746 19.4276V23.6411C30.0746 24.1493 29.9314 24.2266 29.6342 24.2266H29.3587V18.8421ZM13.9105 18.6833H14.3721C14.6367 18.6833 14.8129 18.8725 14.8129 19.171V20.3517C14.8129 20.639 14.7247 20.9896 14.3171 20.9896H13.9105V18.6833ZM10.2126 22.0919L10.4847 19.0371H10.5617L10.7897 22.0919H10.2126ZM55.0608 25.4681H53.6329L52.7041 20.9894V25.4681H51.5306V17.6005H53.1098L53.873 21.6005V17.6005H55.0608V25.4681ZM51.0521 24.2972C51.0521 25.3246 50.1115 25.6228 49.3953 25.6228C48.6793 25.6228 47.7605 25.3246 47.7605 24.2972V18.7721C47.7605 17.7443 48.6793 17.4458 49.3953 17.4458C50.1115 17.4458 51.0521 17.7443 51.0521 18.7721V24.2972ZM47.2613 20.2713H46.0937V19.1734C46.0937 18.7758 45.8576 18.6873 45.6262 18.6873C45.3842 18.6873 45.1625 18.7758 45.1625 19.1734V20.0451C45.1625 20.6088 47.2467 21.6054 47.2467 22.4012V24.2972C47.2467 25.3246 46.3425 25.6228 45.6153 25.6228C44.8994 25.6228 44.0094 25.3246 44.0094 24.2972V22.5854H45.1771V23.9818C45.1771 24.3794 45.3842 24.4676 45.6262 24.4676C45.8576 24.4676 46.0791 24.3794 46.0791 23.9818V23.1532C46.0791 22.0479 43.9948 21.7419 43.9948 20.4601V18.7721C43.9948 17.7443 44.8994 17.4458 45.6153 17.4458C46.3425 17.4458 47.2613 17.7443 47.2613 18.7721V20.2713ZM43.4612 24.0427C43.4612 24.794 42.9769 25.4681 42.0737 25.4681H40.4103V17.6005H41.8202C42.9769 17.6005 43.4612 17.9985 43.4612 19.3796V24.0427ZM38.5493 25.4679H39.7169V17.6001H38.5493V25.4679ZM37.1233 25.4681H35.8168L34.7206 17.6005H35.9109L36.4778 22.3316L37.0435 17.6005H38.2195L37.1233 25.4681ZM33.9093 25.4681L33.7033 23.4216H32.8485L32.6096 25.4681H31.5526L32.4447 17.6005H34.1957L35.0878 25.4681H33.9093ZM31.2422 24.0427C31.2422 24.794 30.7576 25.4681 29.8544 25.4681H28.191V17.6005H29.6009C30.7576 17.6005 31.2422 17.9985 31.2422 19.3796V24.0427ZM25.4259 22.0005H27.563V21.0074H25.4259V22.0005ZM24.5867 25.4681H23.419V22.5288L22.2185 17.6005H23.419L24.0487 20.3494L24.6969 17.6005H25.7872L24.5867 22.4734V25.4681ZM21.8783 25.4681H19.4436V17.6005H21.8565V18.8296H20.611V20.751H21.8013V21.9944H20.611V24.2247H21.8783V25.4681ZM19.0522 25.4681H16.699V17.6005H17.8663V24.2247H19.0522V25.4681ZM16.0234 20.0645C16.0234 20.6501 15.9172 21.1085 15.4978 21.4419C15.5587 21.5114 16.0088 21.8127 16.0225 22.3456L16.0231 25.4681H14.8558L14.8561 22.8364C14.8561 22.3615 14.6554 22.2101 13.9106 22.2101V25.4681H12.7429V17.6005H14.6722C15.6084 17.6005 16.0234 17.9321 16.0234 18.9486V20.0645ZM11.1346 25.4681L10.9289 23.4216H10.0741L9.83493 25.4681H8.77757L9.66968 17.6005H11.421L12.3134 25.4681H11.1346ZM8.41559 25.4681H7.24797V22.0907H6.32573V25.4681H5.15811V17.6005H6.32573V20.7467H7.24797V17.6005H8.41559V25.4681ZM3.46841 26.6479H56.5045V16.5472H3.46841V26.6479ZM41.4455 9.91469C41.7325 9.97234 41.7325 10.2456 41.7325 10.4903C41.7325 10.7349 41.6893 10.9649 41.4312 10.9649H39.8393V9.58374L41.4455 9.91469ZM35.9956 9.19494V12.1301C35.9956 12.3891 35.881 12.5474 35.5654 12.5474H34.5758C34.2745 12.5474 34.1599 12.3461 34.1599 12.1014V8.41806C34.1599 8.10145 34.3894 8.01513 34.5904 8.10145L35.6804 8.53336C35.9671 8.67702 35.9956 8.87833 35.9956 9.19494ZM24.4937 8.53336L25.5836 8.10145C25.7843 8.01513 26.0139 8.10145 26.0139 8.41806V12.1014C26.0139 12.3461 25.8989 12.5474 25.5979 12.5474H24.6083C24.2927 12.5474 24.1781 12.3891 24.1781 12.1301V9.19494C24.1781 8.87833 24.2067 8.67702 24.4937 8.53336ZM2.17777 27.943H57.7666V15.3967H2.17777V27.943ZM41.4182 32.8796C41.4182 32.8796 39.1603 32.931 38.7494 32.8796C38.3645 32.8279 38.2108 32.7506 38.2108 32.4673C38.2108 32.2099 38.185 30.5109 38.2108 30.022C38.262 29.5328 39.032 29.2794 39.3911 29.228C39.7247 29.2021 42.7781 29.228 42.7781 29.228V30.5627H39.5194C39.3911 30.5627 39.4169 31.6696 39.5194 31.6696H42.4445C42.8552 31.6696 42.8039 31.7724 42.8039 31.9525V33.6001C42.8039 33.7802 42.5473 33.9862 42.4445 34.0893C42.3678 34.1666 38.0825 36.7665 38.0825 36.7665V35.6079C38.0825 35.6079 41.4953 33.4458 41.5207 33.2913C41.572 33.0597 41.4182 32.8796 41.4182 32.8796ZM36.9813 32.7799V33.964H35.5447V36.8216L37.2894 35.9977V37.2591L34.98 38.4178C34.6976 38.5465 34.3382 38.4178 34.3382 38.1604V29.7422C34.3382 29.4075 34.6206 29.228 34.8517 29.228H37.546V30.6948H35.5447V32.7799H36.9813ZM33.6728 37.6674V39.0575C33.6728 39.0575 31.4143 40.0613 31.0552 40.2417C30.8499 40.3448 30.6191 40.1641 30.6191 39.8553V29.228H32.1589V38.285L33.6728 37.6674ZM27.8997 38.0538C27.9768 38.208 29.6703 39.0064 29.6703 39.0064V40.6026C29.6703 40.6026 26.9505 39.4439 26.6939 39.1865C26.4115 38.9036 26.3858 38.5945 26.3858 38.4658V30.3822C26.3858 29.8933 27.3608 29.228 27.5919 29.228H29.5932V30.6911C29.5932 30.7425 28.4386 30.7425 28.1563 30.6911C28.0025 30.6655 27.7972 30.8712 27.7972 31.5923V37.5648C27.7972 37.6932 27.7972 37.9251 27.8997 38.0538ZM21.4306 29.228H22.8163L23.5605 31.5452L24.7664 29.228H26.075L24.2017 33.2956V38.1613C24.2017 38.3931 22.8933 37.672 22.8679 37.4919C22.8163 37.3118 22.8679 33.2442 22.8679 33.2442L21.4306 29.228ZM18.4039 32.8313C18.4809 32.883 21.5089 35.2514 21.5089 35.2514V36.6929C21.5089 36.6929 17.2493 33.501 17.121 33.4237C16.967 33.3208 16.7616 32.96 16.7104 32.7029C16.6591 32.4455 16.7104 30.386 16.7104 30.1541C16.7104 29.9223 16.967 29.228 17.326 29.228H20.6363V30.592H18.6605C18.3526 30.5661 18.1731 30.6692 18.1731 30.9522V32.4711C18.1731 32.5742 18.3011 32.7799 18.4039 32.8313ZM48.0714 32.0289C44.6869 35.482 34.4597 42.6761 29.9849 42.6761C25.51 42.6761 15.3148 35.482 11.9303 32.0289C13.68 31.252 13.9667 30.1199 14.0814 29.228H15.4869C15.4009 30.0622 15.2288 31.3959 14.0814 32.2015C15.4009 33.4676 25.2808 41.4103 29.9849 41.4103C34.6889 41.4103 44.6008 33.4676 45.92 32.2015C44.7729 31.3959 44.6008 30.0622 44.5148 29.228H45.92C46.0353 30.1199 46.3217 31.252 48.0714 32.0289ZM19.6319 13.9257L18.5273 11.5545V13.9257H17.1796V8.93597L18.5273 8.69134L19.5887 10.9646L20.7651 8.21674L22.0271 7.88549V13.9257H20.6787V11.4685L19.6319 13.9257ZM27.362 7.2527V12.5475C27.362 13.6123 26.6019 13.9258 26.0139 13.9258H24.2499C23.0739 13.9258 22.8157 13.0511 22.83 12.6052V8.97941C22.8157 8.1159 23.0739 7.61232 23.6476 7.38234L25.9996 6.47583C26.7168 6.21687 27.362 6.61949 27.362 7.2527ZM27.5341 7.32485V5.82844L29.9849 4.49032L32.5537 5.90042V7.39684L30.7754 6.43267V13.926H29.3124V6.34635L27.5341 7.32485ZM37.3438 8.97941V12.6052C37.3584 13.0511 37.0999 13.9258 35.9242 13.9258H34.1599C33.5719 13.9258 32.8118 13.6123 32.8118 12.5475V7.2527C32.8118 6.61949 33.4573 6.21687 34.1742 6.47583L36.5262 7.38234C37.0999 7.61232 37.3584 8.1159 37.3438 8.97941ZM43.0806 12.5189V13.9258H41.7325V12.8208C41.7325 12.4755 41.3166 12.3175 41.1302 12.3175H39.8393V13.9258H38.4912V7.9866L41.7325 8.66283C42.1916 8.76348 43.0806 9.06575 43.0806 9.95762V10.9218C43.0806 11.2671 43.0375 11.5693 42.6072 11.785C42.8082 11.9 43.0806 12.2886 43.0806 12.5189ZM12.0421 10.6074L12.0443 7.15526C22.3588 6.61896 27.4489 3.51363 29.9848 1.60525C32.7046 3.54074 37.5957 6.61896 47.9105 7.15526L47.9052 10.6074C46.5015 11.1154 45.4889 12.3541 45.4414 13.9259H44.2032C44.2433 12.1462 45.2131 10.6866 46.6438 9.83678L46.6475 8.27337C38.3191 7.6844 32.8814 5.0945 29.9848 3.09574C27.4558 4.95832 22.3709 7.45442 13.307 8.27337L13.3104 9.83678C14.7417 10.6866 15.7112 12.1462 15.7512 13.9259H14.5131C14.4659 12.3541 13.4458 11.1154 12.0421 10.6074ZM58.9999 13.9258H46.6614C46.7372 12.6008 47.8318 11.5528 49.1716 11.5528V6.01839C37.7739 5.61826 32.4399 1.88719 29.9848 0C27.5296 1.88719 22.1804 5.61826 10.7828 6.01839V11.5528C12.1225 11.5528 13.2171 12.6008 13.2929 13.9258H0.886719V29.2281H12.4176C12.4176 29.7174 12.1595 31.1658 9.06165 31.5111C11.1844 33.4677 23.5596 44 29.9848 44C36.41 44 48.8174 33.4677 50.9399 31.5111C48.0428 31.1945 47.584 29.919 47.584 29.2281H58.9999V13.9258Z" fill="#FEFEFE"/>
</g>
</svg>
